# xmcd
#
# Track frame offsets:
#	202
#	12810
#	23532
#	39197
#	49707
#	69180
#	83057
#	97570
#	111527
#	131255
#	147050
#	160352
#	173090
#	185480
#	199860
#	213007
#	225230
#	237685
#	260792
#	276767
#
# Disc length: 3853
#
# Revision: 5
# Processed by: cddbd v1.5.1PL0 Copyright (c) Steve Scherf et al.
# Submitted via: Grip 2.95
# Normalized: r3:TSWAP
#
DISCID=fd0f0b14
DTITLE=Various Artist - Blues Brother Soul Sister Volume 3
DYEAR=1900
DGENRE=
TTITLE0=James Brown - I Got You (I Feel Good )
TTITLE1=Aretha Franklin - Respect
TTITLE2=BB King - Ain't Nobody Home
TTITLE3=Arthur Conley - Sweet Soul Music
TTITLE4=Gladys Knight and The Pips - Midnight Train To Georgia
TTITLE5=Wilson Pickett - Mustang Sally
TTITLE6=Percy Sledge - Warm and Tender Love
TTITLE7=Howlin' Wolf - Smokestack Lightning
TTITLE8=Ray Charles - What'd I Say
TTITLE9=Lorraine Ellison - Stay With Me Baby
TTITLE10=Ike and Tina Turner - Nutbush City Limits
TTITLE11=The Iseley Brothers - Who's That Lady
TTITLE12=Muddy Waters - Got My Mojo Working
TTITLE13=Al Green - I'm Still In Love With You
TTITLE14=Carla Thomas - B.A.B.Y.
TTITLE15=The Temptations - My Girl
TTITLE16=Mary Wells - My Guy
TTITLE17=John Lee Hooker - It Serve You Right To Suffer
TTITLE18=Dorothy Moore - Misty Blue
TTITLE19=Otis Redding - (Sittin' On) The Dock Of The Bay
EXTD=
EXTT0=
EXTT1=
EXTT2=
EXTT3=
EXTT4=
EXTT5=
EXTT6=
EXTT7=
EXTT8=
EXTT9=
EXTT10=
EXTT11=
EXTT12=
EXTT13=
EXTT14=
EXTT15=
EXTT16=
EXTT17=
EXTT18=
EXTT19=
PLAYORDER=
